<svg width="15" height="15" viewBox="0 0 15 15" fill="none" xmlns="http://www.w3.org/2000/svg">
<g clip-path="url(#clip0_1025_29481)">
<path d="M4.10866 7.15683C4.21116 7.20765 4.28804 7.24153 4.35638 7.28387C6.68838 8.57128 8.96059 8.46117 11.1559 6.94508C11.4464 6.74181 11.7026 6.47924 11.9589 6.23362C12.0187 6.1828 12.0443 6.03882 12.0187 5.96259C11.2841 3.80279 9.13143 2.43915 6.82506 2.77795C5.62061 2.95581 4.61264 3.52329 3.84385 4.45496C2.05854 6.6317 2.5369 9.72317 4.70661 11.324C5.70604 12.0524 6.8336 12.3149 8.04658 12.2387C9.18269 12.1625 10.2846 11.9338 11.3353 11.5018C12.6081 10.9852 13.7356 10.2398 14.7095 9.27427C14.7863 9.19805 14.8718 9.12182 14.9743 9.02018C14.9828 9.10488 14.9999 9.16417 14.9999 9.22346C14.9999 10.2822 14.9999 11.3324 14.9999 12.3912C14.9999 12.5436 14.9486 12.6453 14.8205 12.7384C13.3769 13.7124 11.8137 14.39 10.1052 14.7288C8.76412 14.9914 7.41446 15.1184 6.05626 14.8559C4.70661 14.5933 3.51071 14.0004 2.49419 13.0772C1.31538 12.0185 0.546582 10.7057 0.187812 9.17264C-0.0513678 8.14779 -0.0599099 7.11448 0.136559 6.08116C0.409908 4.69212 1.00786 3.464 1.97312 2.43068C3.05797 1.25338 4.382 0.474162 5.9623 0.160779C8.2943 -0.296589 10.4042 0.203128 12.2664 1.69381C13.5221 2.71019 14.3507 4.01453 14.7607 5.58145C14.8547 5.93718 14.9059 6.30985 14.9572 6.67405C14.9743 6.76722 14.9315 6.88579 14.8803 6.96202C13.9065 8.37648 12.6508 9.46061 11.079 10.1551C9.94294 10.6549 8.74704 10.9005 7.50843 10.9005C5.58645 10.9005 4.04886 9.30815 4.10011 7.39398C4.10011 7.33469 4.10866 7.2754 4.12574 7.1653L4.10866 7.15683Z" fill="currentColor"/>
</g>
<defs>
<clipPath id="clip0_1025_29481">
<rect width="15" height="15" fill="white"/>
</clipPath>
</defs>
</svg>
