<svg width="30" height="32" viewBox="0 0 30 32" fill="none" xmlns="http://www.w3.org/2000/svg">
<path d="M3.6582 14.2602L13.3509 5.18761C14.0994 4.48694 15.204 4.48694 15.9526 5.18761L25.6452 14.2602" stroke="#F57F17" stroke-width="2.5" stroke-linecap="round" stroke-linejoin="round"/>
<path d="M24.0752 12.8156V5.08648C24.0752 4.79703 23.9699 4.51944 23.7825 4.31477C23.595 4.1101 23.3408 3.99512 23.0758 3.99512H20.0775C19.5256 3.99512 19.0781 4.48374 19.0781 5.08648V8.13818" stroke="#F57F17" stroke-width="2.5" stroke-linecap="round" stroke-linejoin="round"/>
<path d="M11.6523 26.6713V19.7593C11.6523 19.1566 12.0998 18.668 12.6518 18.668H14.6506" stroke="#F57F17" stroke-width="2.5" stroke-linecap="round" stroke-linejoin="round"/>
<path d="M5.22794 12.8154V26.6711" stroke="#F57F17" stroke-width="2.5" stroke-linecap="round" stroke-linejoin="round"/>
<path d="M14.6517 26.6709H3.6582" stroke="#F57F17" stroke-width="2.5" stroke-linecap="round" stroke-linejoin="round"/>
<path fill-rule="evenodd" clip-rule="evenodd" d="M21.0779 18.3504C21.2469 17.9762 21.5957 17.7393 21.9777 17.7393C22.3597 17.7393 22.7086 17.9762 22.8775 18.3504L23.6108 19.9738C23.7563 20.2973 24.0388 20.5213 24.3655 20.5722L26.008 20.8391C26.3856 20.8996 26.699 21.1887 26.8167 21.5851C26.9344 21.9816 26.8359 22.4166 26.5626 22.7074L25.3755 23.9716C25.1385 24.2228 25.0308 24.5858 25.0881 24.941L25.3674 26.7243C25.4324 27.1351 25.278 27.5506 24.9691 27.7957C24.6603 28.0408 24.2507 28.0729 23.913 27.8785L22.4464 27.0367C22.1527 26.8654 21.8001 26.8654 21.5063 27.0367L20.0412 27.8785C19.7034 28.0729 19.2938 28.0408 18.985 27.7957C18.6761 27.5506 18.5217 27.1351 18.5867 26.7243L18.8661 24.941C18.9226 24.5859 18.8151 24.2232 18.5787 23.9716L17.3969 22.7074C17.1237 22.4168 17.0251 21.982 17.1425 21.5857C17.2598 21.1894 17.5729 20.9 17.9502 20.8391L19.5914 20.5722C19.9181 20.5213 20.2006 20.2973 20.3461 19.9738L21.0779 18.3504Z" stroke="#F57F17" stroke-width="2.5" stroke-linecap="round" stroke-linejoin="round"/>
</svg>
