<svg width="48" height="48" viewBox="0 0 48 48" fill="none" xmlns="http://www.w3.org/2000/svg">
<path d="M42.1848 11.25H36.9341C36.3131 11.25 35.8098 10.746 35.8098 10.125C35.8098 9.504 36.3138 9 36.9348 9H37.3098C38.5526 9 39.5598 7.99275 39.5598 6.75C39.5598 5.50725 38.5526 4.5 37.3098 4.5H18.5598C17.3171 4.5 16.3098 5.50725 16.3098 6.75C16.3098 7.99275 17.3171 9 18.5598 9H24.1848C24.8058 9 25.3098 9.504 25.3098 10.125C25.3098 10.746 24.8066 11.25 24.1856 11.25H23.4348C21.9911 11.25 20.8098 12.4313 20.8098 13.875C20.8098 15.3188 21.9911 16.5 23.4348 16.5H25.6848C26.3058 16.5 26.8098 17.004 26.8098 17.625C26.8098 18.246 26.3058 18.75 25.6848 18.75H20.0598C18.8171 18.75 17.8098 19.7572 17.8098 21C17.8098 22.2428 18.8171 23.25 20.0598 23.25H38.8098C40.0526 23.25 41.0598 22.2428 41.0598 21C41.0598 19.7572 40.0526 18.75 38.8098 18.75H38.4348C37.8138 18.75 37.3098 18.246 37.3098 17.625C37.3098 17.004 37.8138 16.5 38.4348 16.5H42.1848C43.6286 16.5 44.8098 15.3188 44.8098 13.875C44.8098 12.4313 43.6286 11.25 42.1848 11.25Z" fill="#ECEFF1"/>
<path d="M12.75 26.25C12 26.25 5.3925 26.25 4.875 26.25H1.875C0.84 26.25 0 27.09 0 28.125C0 29.16 0.84 30 1.875 30H4.125C4.53 30 4.8825 29.895 5.085 30H6C6.825 30 7.5 30.675 7.5 31.5C7.5 31.9125 7.335 32.2875 7.0575 32.5575C6.7875 32.835 6.4125 33 6 33H3.75C2.9175 33 2.25 33.675 2.25 34.5C2.25 35.325 2.9175 36 3.75 36H12.75V26.25Z" fill="#ECEFF1"/>
<path d="M45.7501 39H6.80404C6.12079 39 5.48254 39.4328 5.30479 40.092C5.03629 41.0895 5.79229 42 6.75004 42H13.125C13.746 42 14.25 42.504 14.25 43.125C14.25 43.746 13.746 44.25 13.125 44.25H10.788C10.1048 44.25 9.46654 44.6828 9.28879 45.342C9.02104 46.3395 9.77704 47.25 10.734 47.25H42.6961C43.3793 47.25 44.0176 46.8172 44.1953 46.158C44.4638 45.1605 43.7078 44.25 42.7501 44.25H42.3751C41.7541 44.25 41.2501 43.746 41.2501 43.125C41.2501 42.504 41.7541 42 42.3751 42H45.6961C46.3793 42 47.0176 41.5672 47.1953 40.908C47.4638 39.9105 46.7078 39 45.7501 39Z" fill="#ECEFF1"/>
<path d="M36.5598 38.25H12.5598C11.7348 38.25 11.0598 37.575 11.0598 36.75V12.75C11.0598 11.925 11.7348 11.25 12.5598 11.25H36.5598C37.3848 11.25 38.0598 11.925 38.0598 12.75V36.75C38.0598 37.575 37.3848 38.25 36.5598 38.25Z" fill="url(#paint0_linear_2740_24212)"/>
<path d="M20.8098 11.25H28.3098V15H20.8098V11.25Z" fill="#FFF8E6"/>
<path d="M21.5598 34.5H14.0598V36H21.5598V34.5Z" fill="#6B5F41"/>
<path d="M21.5598 30.75L20.0598 29.25L18.5598 30.75H19.3098V33H20.8098V30.75H21.5598Z" fill="#6B5F41"/>
<path d="M17.0598 30.75L15.5598 29.25L14.0598 30.75H14.8098V33H16.3098V30.75H17.0598Z" fill="#6B5F41"/>
<path d="M35.0598 26.25C30.0971 26.25 26.0598 30.2873 26.0598 35.25C26.0598 36.303 26.2511 37.3103 26.5848 38.25H36.5598C37.3848 38.25 38.0598 37.575 38.0598 36.75V26.775C37.1201 26.4413 36.1128 26.25 35.0598 26.25Z" fill="url(#paint1_radial_2740_24212)"/>
<path d="M42.5598 35.25C42.5598 39.3915 39.2013 42.75 35.0598 42.75C30.9183 42.75 27.5598 39.3915 27.5598 35.25C27.5598 31.1085 30.9183 27.75 35.0598 27.75C39.2013 27.75 42.5598 31.1085 42.5598 35.25Z" fill="url(#paint2_linear_2740_24212)"/>
<path d="M34.0443 38.5159L31.0443 35.5159C30.898 35.3696 30.898 35.1319 31.0443 34.9856L31.5745 34.4554C31.7208 34.3091 31.9585 34.3091 32.1048 34.4554L34.3098 36.6596L38.389 32.5804C38.5353 32.4341 38.773 32.4341 38.9193 32.5804L39.4495 33.1106C39.5958 33.2569 39.5958 33.4946 39.4495 33.6409L34.5745 38.5159C34.4283 38.6621 34.1913 38.6621 34.0443 38.5159Z" fill="white"/>
<defs>
<linearGradient id="paint0_linear_2740_24212" x1="11.8076" y1="11.619" x2="37.1216" y2="37.6853" gradientUnits="userSpaceOnUse">
<stop stop-color="#FFD869"/>
<stop offset="1" stop-color="#FEC52B"/>
</linearGradient>
<radialGradient id="paint1_radial_2740_24212" cx="0" cy="0" r="1" gradientUnits="userSpaceOnUse" gradientTransform="translate(35.2511 35.4735) scale(9.2715)">
<stop/>
<stop offset="1" stop-opacity="0"/>
</radialGradient>
<linearGradient id="paint2_linear_2740_24212" x1="29.7566" y1="29.9468" x2="40.3631" y2="40.5532" gradientUnits="userSpaceOnUse">
<stop stop-color="#21AD64"/>
<stop offset="1" stop-color="#088242"/>
</linearGradient>
</defs>
</svg>
