<svg width="48" height="48" viewBox="0 0 48 48" fill="none" xmlns="http://www.w3.org/2000/svg">
<path d="M42.8539 24.03L39.3939 19.818C38.4299 11.01 31.9999 4 21.9999 4C10.7259 4 4.0459 11.856 4.0459 22C4.0459 29.276 7.8199 32.594 9.3579 37.664C10.1339 40.22 12.4439 42 15.1139 42H32.3699C35.2279 42 37.6899 39.982 38.2519 37.18L39.2999 31.952L41.5479 30.73C43.9899 29.4 44.6179 26.178 42.8539 24.03Z" fill="#FFC300"/>
<path d="M20 32C23.3137 32 26 29.3137 26 26C26 22.6863 23.3137 20 20 20C16.6863 20 14 22.6863 14 26C14 29.3137 16.6863 32 20 32Z" fill="#003566"/>
<path d="M36 40C38.2091 40 40 38.2091 40 36C40 33.7909 38.2091 32 36 32C33.7909 32 32 33.7909 32 36C32 38.2091 33.7909 40 36 40Z" fill="#003566"/>
<path d="M20 2C18.896 2 18 2.896 18 4V22H22V4C22 2.896 21.104 2 20 2Z" fill="#003566"/>
<path d="M36.2375 38H31.6555C30.0535 38 28.5455 37.376 27.4135 36.242L18.5855 27.414C17.8035 26.632 17.8035 25.368 18.5855 24.586C19.3675 23.804 20.6315 23.804 21.4135 24.586L30.2415 33.414C30.6155 33.788 31.1295 34 31.6555 34H36.2375C37.3435 34 38.2375 34.894 38.2375 36C38.2375 37.106 37.3435 38 36.2375 38Z" fill="#003566"/>
</svg>
