<svg width="48" height="48" viewBox="0 0 48 48" fill="none" xmlns="http://www.w3.org/2000/svg">
<path fill-rule="evenodd" clip-rule="evenodd" d="M45.3762 35.376L38.7242 28.724C39.0742 30.714 38.4062 33.05 36.7282 34.728C34.8522 36.604 32.1502 37.228 30.0322 36.564C29.6622 37.272 29.1142 37.914 28.4482 38.448L35.3762 45.376C36.5442 46.544 38.5422 45.992 38.9442 44.388L39.5802 41.842C39.8582 40.728 40.7282 39.858 41.8422 39.58L44.3882 38.944C45.9922 38.542 46.5442 36.544 45.3762 35.376Z" fill="#003566"/>
<path fill-rule="evenodd" clip-rule="evenodd" d="M2.624 35.376L9.276 28.724C8.926 30.714 9.594 33.05 11.272 34.728C13.148 36.604 15.85 37.228 17.968 36.564C18.338 37.272 18.886 37.914 19.552 38.448L12.624 45.376C11.456 46.544 9.458 45.992 9.056 44.388L8.42 41.842C8.142 40.728 7.272 39.858 6.158 39.58L3.612 38.944C2.008 38.542 1.456 36.544 2.624 35.376Z" fill="#003566"/>
<path fill-rule="evenodd" clip-rule="evenodd" d="M17.968 7.436C18.996 5.47 21.348 4 24 4C26.652 4 29.004 5.47 30.032 7.436C32.148 6.772 34.852 7.396 36.728 9.272C38.604 11.148 39.228 13.85 38.564 15.968C40.53 16.996 42 19.348 42 22C42 24.652 40.53 27.004 38.564 28.032C39.228 30.148 38.604 32.852 36.728 34.728C34.852 36.604 32.15 37.228 30.032 36.564C29.004 38.53 26.652 40 24 40C21.348 40 18.996 38.53 17.968 36.564C15.852 37.228 13.148 36.604 11.272 34.728C9.396 32.852 8.772 30.15 9.436 28.032C7.47 27.004 6 24.652 6 22C6 19.348 7.47 16.996 9.436 15.968C8.772 13.852 9.396 11.148 11.272 9.272C13.148 7.396 15.85 6.772 17.968 7.436Z" fill="#FFC300"/>
<path d="M21.9995 30C21.4875 30 20.9755 29.804 20.5855 29.414L14.5855 23.414C13.8035 22.632 13.8035 21.368 14.5855 20.586C15.3675 19.804 16.6315 19.804 17.4135 20.586L21.9995 25.172L30.5855 16.586C31.3675 15.804 32.6315 15.804 33.4135 16.586C34.1955 17.368 34.1955 18.632 33.4135 19.414L23.4135 29.414C23.0235 29.804 22.5115 30 21.9995 30Z" fill="#003566"/>
</svg>
