<svg width="24" height="23" viewBox="0 0 24 23" fill="none" xmlns="http://www.w3.org/2000/svg">
<path d="M4.79981 2.29999C3.9158 2.29999 3.1998 2.98615 3.1998 3.83332V6.89999L0.799805 9.96666C0.799805 10.8138 1.5158 11.5 2.3998 11.5C3.2838 11.5 3.9998 10.8138 3.9998 9.96666L5.5998 6.89999H7.99981L7.19981 9.96666C7.19981 10.8138 7.91581 11.5 8.79981 11.5C9.68381 11.5 10.3998 10.8138 10.3998 9.96666V6.89999H13.5998V9.96666C13.5998 10.8138 14.3158 11.5 15.1998 11.5C16.0838 11.5 16.7998 10.8138 16.7998 9.96666L15.9998 6.89999H18.3998L19.9998 9.96666C19.9998 10.8138 20.7158 11.5 21.5998 11.5C22.4838 11.5 23.1998 10.8138 23.1998 9.96666L20.7998 6.89999V3.83332C20.7998 2.98615 20.0838 2.29999 19.1998 2.29999H4.79981ZM5.5998 3.83332C6.04141 3.83332 6.39981 4.17679 6.39981 4.59999C6.39981 5.02319 6.04141 5.36666 5.5998 5.36666C5.15821 5.36666 4.79981 5.02319 4.79981 4.59999C4.79981 4.17679 5.15821 3.83332 5.5998 3.83332ZM8.79981 3.83332C9.24141 3.83332 9.59981 4.17679 9.59981 4.59999C9.59981 5.02319 9.24141 5.36666 8.79981 5.36666C8.35821 5.36666 7.99981 5.02319 7.99981 4.59999C7.99981 4.17679 8.35821 3.83332 8.79981 3.83332ZM3.1998 13.0333V18.4C3.1998 19.6611 4.28383 20.7 5.5998 20.7H18.3998C19.7158 20.7 20.7998 19.6611 20.7998 18.4V13.0333H19.1998V18.4C19.1998 18.8332 18.8518 19.1667 18.3998 19.1667H5.5998C5.14778 19.1667 4.79981 18.8332 4.79981 18.4V13.0333H3.1998Z" fill="#F57F17"/>
</svg>
