<svg width="48" height="48" viewBox="0 0 48 48" fill="none" xmlns="http://www.w3.org/2000/svg">
<path d="M43.875 2.25C45.7388 2.25 47.25 3.76125 47.25 5.625C47.25 7.48875 45.7388 9 43.875 9C42.0112 9 40.5 7.48875 40.5 5.625C40.5 3.76125 42.0112 2.25 43.875 2.25ZM0 30C0 32.0707 1.67925 33.75 3.75 33.75H7.5C9.57075 33.75 11.25 35.4285 11.25 37.5C11.25 39.5715 9.5715 41.25 7.5 41.25H7.0755C5.64 41.25 4.5 42.39 4.5 43.7962V43.875C4.5 45.3247 5.67525 46.5 7.125 46.5H35.625C37.0695 46.5 38.2425 45.333 38.25 43.8877V43.875C38.2575 42.4275 37.086 41.25 35.6377 41.25H35.25C33.5933 41.25 32.25 39.9067 32.25 38.25C32.25 36.5933 33.5933 35.25 35.25 35.25H44.25C46.3208 35.25 48 33.5707 48 31.5C48 29.4293 46.3208 27.75 44.25 27.75H42C40.3433 27.75 39 26.4067 39 24.75C39 23.0933 40.3433 21.75 42 21.75H43.875C46.1535 21.75 48 19.9035 48 17.625C48 15.3465 46.1535 13.5 43.875 13.5H33.75C32.5073 13.5 31.5 12.4928 31.5 11.25C31.5 10.0072 32.5073 9 33.75 9H34.875C36.7388 9 38.25 7.48875 38.25 5.625C38.25 3.76125 36.7388 2.25 34.875 2.25H23.25H6.75C5.09325 2.25 3.75 3.59325 3.75 5.25C3.75 6.90675 5.09325 8.25 6.75 8.25H12.75C14.1997 8.25 15.375 9.42525 15.375 10.875C15.375 12.3247 14.1997 13.5 12.75 13.5H3C1.34325 13.5 0 14.8433 0 16.5C0 18.1567 1.34325 19.5 3 19.5H4.125C5.98875 19.5 7.5 21.0112 7.5 22.875C7.5 24.7388 5.98875 26.25 4.125 26.25H3.75C1.67925 26.25 0 27.9293 0 30Z" fill="#ECEFF1"/>
<path d="M14.2501 33.7501V36.7501C14.2501 37.9876 13.2376 39.0001 12.0001 39.0001H11.2501C10.0126 39.0001 9.00008 37.9876 9.00008 36.7501V33.7501C9.00008 32.5126 10.0126 31.5001 11.2501 31.5001H12.0001C13.2376 31.5001 14.2501 32.5126 14.2501 33.7501ZM19.5001 31.5001H18.7501C17.5126 31.5001 16.5001 32.5126 16.5001 33.7501V36.7501C16.5001 37.9876 17.5126 39.0001 18.7501 39.0001H19.5001C20.7376 39.0001 21.7501 37.9876 21.7501 36.7501V33.7501C21.7501 32.5126 20.7376 31.5001 19.5001 31.5001ZM28.1251 14.2501H20.2501V10.0951C20.2501 8.5051 18.3751 7.6651 17.1826 8.7226L8.00258 16.8826C7.33508 17.4751 7.33508 18.5251 8.00258 19.1176L17.1826 27.2776C18.3751 28.3351 20.2501 27.4951 20.2501 25.9051V21.7501H28.1251C30.8176 21.7501 33.0001 23.9326 33.0001 26.6251C33.0001 29.3176 30.8176 31.5001 28.1251 31.5001H26.2501C25.0073 31.5001 24.0001 32.5073 24.0001 33.7501V36.7501C24.0001 37.9928 25.0073 39.0001 26.2501 39.0001H28.1251C34.9598 39.0001 40.5001 33.4591 40.5001 26.6251C40.5001 19.7903 34.9598 14.2501 28.1251 14.2501Z" fill="url(#paint0_linear_2740_24205)"/>
<defs>
<linearGradient id="paint0_linear_2740_24205" x1="22.6232" y1="39.0001" x2="22.6232" y2="8.25012" gradientUnits="userSpaceOnUse">
<stop stop-color="#ED8F03"/>
<stop offset="1" stop-color="#FFB75E"/>
</linearGradient>
</defs>
</svg>
