<svg width="48" height="48" viewBox="0 0 48 48" fill="none" xmlns="http://www.w3.org/2000/svg">
<path d="M19 14C21.2091 14 23 12.2091 23 10C23 7.79086 21.2091 6 19 6C16.7909 6 15 7.79086 15 10C15 12.2091 16.7909 14 19 14Z" fill="#FFC300"/>
<path d="M36 28H28C25.79 28 24 26.21 24 24V22C24 19.79 25.79 18 28 18H36C38.21 18 40 19.79 40 22V24C40 26.21 38.21 28 36 28Z" fill="#FFC300"/>
<path d="M28.0005 24H24.4725C23.7085 24 23.0225 23.576 22.6825 22.894L19.7905 17.106C19.4405 16.41 18.7385 16.03 18.0125 16.024L18.0005 16H17.4425C16.5805 16 15.8165 16.55 15.5445 17.368L12.7505 24.176C12.2545 25.38 12.0005 26.67 12.0005 27.972V28V32V35.172L8.5865 38.586C7.8045 39.368 7.8045 40.632 8.5865 41.414C8.9765 41.804 9.4885 42 10.0005 42C10.5125 42 11.0245 41.804 11.4145 41.414L15.4145 37.414C15.7905 37.04 16.0005 36.532 16.0005 36V31.606L18.0005 34.606V40C18.0005 41.106 18.8945 42 20.0005 42C21.1065 42 22.0005 41.106 22.0005 40V34C22.0005 33.606 21.8825 33.218 21.6645 32.89L18.1105 27.56L18.9225 24.316L19.1065 24.684C20.1285 26.728 22.1865 28 24.4725 28H28.0005C29.1065 28 30.0005 27.106 30.0005 26C30.0005 24.894 29.1065 24 28.0005 24Z" fill="#003566"/>
</svg>
