<svg width="48" height="48" viewBox="0 0 48 48" fill="none" xmlns="http://www.w3.org/2000/svg">
<path d="M43.4559 37.1803H41.8592C41.1107 37.1803 40.5044 36.5751 40.5044 35.8279C40.5044 35.0806 41.1107 34.4754 41.8592 34.4754H42.1383C42.9099 34.4754 43.63 33.9879 43.8299 33.244C44.132 32.1194 43.2791 31.0943 42.198 31.0943H31.0205V23.6557H40.5044C42.0862 23.6557 43.3631 22.2843 43.1999 20.6736C43.0576 19.2704 41.7895 18.2459 40.3764 18.2459H34.4076C33.6591 18.2459 33.0528 17.6407 33.0528 16.8934C33.0528 16.1462 33.6591 15.541 34.4076 15.541H38.0366C38.9226 15.541 39.7294 14.9047 39.8182 14.0249C39.9198 13.0126 39.1265 12.1598 38.1334 12.1598H32.7141C32.1531 12.1598 31.6979 11.7054 31.6979 11.1455C31.6979 10.5856 32.1531 10.1311 32.7141 10.1311H35.3269C36.2129 10.1311 37.0197 9.49482 37.1085 8.61504C37.2101 7.60273 36.4168 6.75 35.4237 6.75H13.1657C12.2796 6.75 11.4728 7.38633 11.3841 8.26611C11.2825 9.27842 12.0757 10.1311 13.0688 10.1311H15.4398C16.1883 10.1311 16.7946 10.7364 16.7946 11.4836C16.7946 12.2308 16.1883 12.8361 15.4398 12.8361H6.76135C5.34825 12.8361 4.08011 13.8599 3.93785 15.2637C3.77459 16.8745 5.05154 18.2459 6.63332 18.2459H8.32687C9.63633 18.2459 10.6978 19.3056 10.6978 20.6127C10.6978 21.9199 9.63633 22.9795 8.32687 22.9795H6.08393C4.67082 22.9795 3.40269 24.0033 3.26043 25.4072C3.09717 27.018 4.37411 28.3893 5.95589 28.3893H17.4721V36.5041H7.03164C6.26006 36.5041 5.53996 36.9917 5.34012 37.7355C5.03799 38.8601 5.89086 39.8852 6.97203 39.8852H7.98816C8.73671 39.8852 9.343 40.4905 9.343 41.2377C9.343 41.9849 8.73671 42.5902 7.98816 42.5902H6.76135C5.34825 42.5902 4.08011 43.614 3.93785 45.0178C3.77459 46.6286 5.05154 48 6.63332 48H40.3764C41.7895 48 43.0576 46.9762 43.1999 45.5723C43.3631 43.9616 42.0862 42.5902 40.5044 42.5902H40.1657C39.6048 42.5902 39.1496 42.1357 39.1496 41.5758C39.1496 41.0159 39.6048 40.5615 40.1657 40.5615H43.5528C44.5459 40.5615 45.3392 39.7088 45.2376 38.6964C45.1495 37.8167 44.342 37.1803 43.4559 37.1803Z" fill="#ECEFF1"/>
<path d="M33.125 38.2505H13.625C12.7962 38.2505 12.125 37.5792 12.125 36.7505V12.7505C12.125 11.9217 12.7962 11.2505 13.625 11.2505H33.125C33.9538 11.2505 34.625 11.9217 34.625 12.7505V36.7505C34.625 37.5792 33.9538 38.2505 33.125 38.2505Z" fill="url(#paint0_linear_2740_24228)"/>
<path d="M31.625 36.7505V34.5005H9.125V36.7505C9.125 37.5792 9.79625 38.2505 10.625 38.2505H33.125C32.2962 38.2505 31.625 37.5792 31.625 36.7505Z" fill="url(#paint1_linear_2740_24228)"/>
<path d="M30.5 21.0005H20.75C20.543 21.0005 20.375 20.8325 20.375 20.6255V19.1255C20.375 18.9185 20.543 18.7505 20.75 18.7505H30.5C30.707 18.7505 30.875 18.9185 30.875 19.1255V20.6255C30.875 20.8325 30.707 21.0005 30.5 21.0005Z" fill="#057093"/>
<path d="M30.5 25.5005H20.75C20.543 25.5005 20.375 25.3325 20.375 25.1255V23.6255C20.375 23.4185 20.543 23.2505 20.75 23.2505H30.5C30.707 23.2505 30.875 23.4185 30.875 23.6255V25.1255C30.875 25.3325 30.707 25.5005 30.5 25.5005Z" fill="#057093"/>
<path d="M30.5 30.0005H20.75C20.543 30.0005 20.375 29.8325 20.375 29.6255V28.1255C20.375 27.9185 20.543 27.7505 20.75 27.7505H30.5C30.707 27.7505 30.875 27.9185 30.875 28.1255V29.6255C30.875 29.8325 30.707 30.0005 30.5 30.0005Z" fill="#057093"/>
<path opacity="0.05" d="M28.7083 38.2505H34.625V27.0005H28.2748C27.641 27.0005 27.125 27.5615 27.125 28.2507V28.7502C27.125 29.2902 27.4347 29.7485 27.875 29.9232V30.2502C27.875 30.7887 28.1847 31.2462 28.625 31.4225C28.6355 32.978 29.3645 34.3917 30.5682 35.2505C29.5835 35.954 28.9235 37.031 28.7083 38.2505Z" fill="black"/>
<path d="M17.75 21.0005H16.25C16.043 21.0005 15.875 20.8325 15.875 20.6255V19.1255C15.875 18.9185 16.043 18.7505 16.25 18.7505H17.75C17.957 18.7505 18.125 18.9185 18.125 19.1255V20.6255C18.125 20.8325 17.957 21.0005 17.75 21.0005Z" fill="#057093"/>
<path d="M17.75 25.5005H16.25C16.043 25.5005 15.875 25.3325 15.875 25.1255V23.6255C15.875 23.4185 16.043 23.2505 16.25 23.2505H17.75C17.957 23.2505 18.125 23.4185 18.125 23.6255V25.1255C18.125 25.3325 17.957 25.5005 17.75 25.5005Z" fill="#057093"/>
<path d="M17.75 30.0005H16.25C16.043 30.0005 15.875 29.8325 15.875 29.6255V28.1255C15.875 27.9185 16.043 27.7505 16.25 27.7505H17.75C17.957 27.7505 18.125 27.9185 18.125 28.1255V29.6255C18.125 29.8325 17.957 30.0005 17.75 30.0005Z" fill="#057093"/>
<path opacity="0.07" d="M28.8011 38.2505H34.625V27.7505H27.9405C27.4905 27.7505 27.125 28.1292 27.125 28.5956V29.0778C27.125 29.5348 27.4771 29.9077 27.9145 29.9222V30.5261C27.9145 30.9816 28.2658 31.3545 28.7039 31.3705V31.6254C28.7039 33.2337 29.6576 34.6638 31.1087 35.3539C29.915 35.9224 29.0679 36.9941 28.8011 38.2505Z" fill="black"/>
<path d="M38.375 31.5818V29.2505H29.375V31.5818C29.375 33.2968 30.542 34.7923 32.207 35.2085L32.375 35.2505L32.207 35.2925C30.542 35.7086 29.375 37.2042 29.375 38.9192V41.2505H38.375V38.9192C38.375 37.2042 37.208 35.7086 35.543 35.2925L35.375 35.2505L35.543 35.2085C37.208 34.7923 38.375 33.2968 38.375 31.5818Z" fill="url(#paint2_radial_2740_24228)"/>
<path d="M34.5643 38.7741C34.5066 38.4791 34.2273 38.2505 33.8754 38.2505C33.5234 38.2505 33.2441 38.4791 33.1864 38.7741C32.2466 39.1154 30.875 39.9929 30.875 41.2505H36.875C36.875 39.9935 35.5041 39.116 34.5643 38.7741Z" fill="url(#paint3_linear_2740_24228)"/>
<path d="M33.875 37.5005C34.2892 37.5005 34.625 37.1647 34.625 36.7505C34.625 36.3363 34.2892 36.0005 33.875 36.0005C33.4608 36.0005 33.125 36.3363 33.125 36.7505C33.125 37.1647 33.4608 37.5005 33.875 37.5005Z" fill="url(#paint4_linear_2740_24228)"/>
<path d="M38.7215 30.7505H29.0285C28.8058 30.7505 28.625 30.5262 28.625 30.2502V29.2505H39.125V30.2502C39.125 30.5262 38.9443 30.7505 38.7215 30.7505Z" fill="url(#paint5_linear_2740_24228)"/>
<path d="M39.125 40.2507V41.2505H28.625V40.2507C28.625 39.9747 28.8058 39.7505 29.0285 39.7505H38.7207C38.9442 39.7505 39.125 39.9747 39.125 40.2507Z" fill="url(#paint6_linear_2740_24228)"/>
<path d="M39.4752 29.2505H28.2748C28.0543 29.2505 27.875 29.0262 27.875 28.7502V28.25C27.875 27.9747 28.0543 27.7505 28.2748 27.7505H39.4745C39.6957 27.7505 39.875 27.9747 39.875 28.2507V28.751C39.875 29.0262 39.6957 29.2505 39.4752 29.2505Z" fill="url(#paint7_linear_2740_24228)"/>
<path d="M30.875 33.0005C30.875 34.1255 33.542 35.2505 33.875 35.2505C34.208 35.2505 36.875 34.1255 36.875 33.0005H30.875Z" fill="url(#paint8_linear_2740_24228)"/>
<path d="M28.2748 41.2505H39.4752C39.6964 41.2505 39.875 41.4746 39.875 41.7505V42.2505C39.875 42.5264 39.6956 42.7505 39.4752 42.7505H28.2748C28.0544 42.7497 27.875 42.5256 27.875 42.2497V41.7497C27.875 41.4746 28.0544 41.2505 28.2748 41.2505Z" fill="url(#paint9_linear_2740_24228)"/>
<defs>
<linearGradient id="paint0_linear_2740_24228" x1="15.839" y1="12.323" x2="31.9145" y2="38.8332" gradientUnits="userSpaceOnUse">
<stop stop-color="#7DD8F3"/>
<stop offset="1" stop-color="#45B0D0"/>
</linearGradient>
<linearGradient id="paint1_linear_2740_24228" x1="21.125" y1="34.7135" x2="21.125" y2="38.258" gradientUnits="userSpaceOnUse">
<stop stop-color="#0176D0"/>
<stop offset="1" stop-color="#16538C"/>
</linearGradient>
<radialGradient id="paint2_radial_2740_24228" cx="0" cy="0" r="1" gradientUnits="userSpaceOnUse" gradientTransform="translate(33.875 35.2505) scale(5.48325 5.20912)">
<stop stop-color="#FAFAFB"/>
<stop offset="1" stop-color="#C8CDD1"/>
</radialGradient>
<linearGradient id="paint3_linear_2740_24228" x1="33.8754" y1="41.8931" x2="33.8754" y2="38.3476" gradientUnits="userSpaceOnUse">
<stop stop-color="#EBA84B"/>
<stop offset="1" stop-color="#D97218"/>
</linearGradient>
<linearGradient id="paint4_linear_2740_24228" x1="33.875" y1="37.8215" x2="33.875" y2="36.0485" gradientUnits="userSpaceOnUse">
<stop stop-color="#EBA84B"/>
<stop offset="1" stop-color="#D97218"/>
</linearGradient>
<linearGradient id="paint5_linear_2740_24228" x1="28.625" y1="30.0005" x2="39.125" y2="30.0005" gradientUnits="userSpaceOnUse">
<stop stop-color="#912FBD"/>
<stop offset="1" stop-color="#9332BF"/>
</linearGradient>
<linearGradient id="paint6_linear_2740_24228" x1="28.625" y1="40.5005" x2="39.125" y2="40.5005" gradientUnits="userSpaceOnUse">
<stop stop-color="#912FBD"/>
<stop offset="1" stop-color="#9332BF"/>
</linearGradient>
<linearGradient id="paint7_linear_2740_24228" x1="27.875" y1="28.5005" x2="39.875" y2="28.5005" gradientUnits="userSpaceOnUse">
<stop stop-color="#AE4CD5"/>
<stop offset="1" stop-color="#AC4AD5"/>
</linearGradient>
<linearGradient id="paint8_linear_2740_24228" x1="33.875" y1="32.519" x2="33.875" y2="35.1777" gradientUnits="userSpaceOnUse">
<stop stop-color="#EBA84B"/>
<stop offset="1" stop-color="#D97218"/>
</linearGradient>
<linearGradient id="paint9_linear_2740_24228" x1="39.875" y1="42.0001" x2="27.875" y2="42.0001" gradientUnits="userSpaceOnUse">
<stop stop-color="#AE4CD5"/>
<stop offset="1" stop-color="#AC4AD5"/>
</linearGradient>
</defs>
</svg>
