<svg width="48" height="48" viewBox="0 0 48 48" fill="none" xmlns="http://www.w3.org/2000/svg">
<path d="M45.5139 35.25H43.7462C42.9174 35.25 42.2462 34.5788 42.2462 33.75C42.2462 32.9212 42.9174 32.25 43.7462 32.25H44.0552C44.9094 32.25 45.7067 31.7093 45.9279 30.8843C46.2624 29.637 45.3182 28.5 44.1212 28.5H31.7462V20.25H42.2462C43.9974 20.25 45.4112 18.729 45.2304 16.9425C45.0729 15.3863 43.6689 14.25 42.1044 14.25H35.4962C34.6674 14.25 33.9962 13.5787 33.9962 12.75C33.9962 11.9213 34.6674 11.25 35.4962 11.25H39.5139C40.4949 11.25 41.3882 10.5443 41.4864 9.5685C41.5989 8.44575 40.7207 7.5 39.6212 7.5H33.6212C33.0002 7.5 32.4962 6.996 32.4962 6.375C32.4962 5.754 33.0002 5.25 33.6212 5.25H36.5139C37.4949 5.25 38.3882 4.54425 38.4864 3.5685C38.5989 2.44575 37.7207 1.5 36.6212 1.5H11.9784C10.9974 1.5 10.1042 2.20575 10.0059 3.1815C9.89344 4.30425 10.7717 5.25 11.8712 5.25H14.4962C15.3249 5.25 15.9962 5.92125 15.9962 6.75C15.9962 7.57875 15.3249 8.25 14.4962 8.25H4.88794C3.32344 8.25 1.91944 9.3855 1.76194 10.9425C1.58119 12.729 2.99494 14.25 4.74619 14.25H6.62119C8.07094 14.25 9.24619 15.4253 9.24619 16.875C9.24619 18.3248 8.07094 19.5 6.62119 19.5H4.13794C2.57344 19.5 1.16944 20.6355 1.01194 22.1925C0.831192 23.979 2.24494 25.5 3.99619 25.5H16.7462V34.5H5.18719C4.33294 34.5 3.53569 35.0407 3.31444 35.8657C2.97994 37.113 3.92419 38.25 5.12119 38.25H6.24619C7.07494 38.25 7.74619 38.9212 7.74619 39.75C7.74619 40.5788 7.07494 41.25 6.24619 41.25H4.88794C3.32344 41.25 1.91944 42.3855 1.76194 43.9425C1.58119 45.729 2.99494 47.25 4.74619 47.25H42.1044C43.6689 47.25 45.0729 46.1145 45.2304 44.5575C45.4112 42.771 43.9974 41.25 42.2462 41.25H41.8712C41.2502 41.25 40.7462 40.746 40.7462 40.125C40.7462 39.504 41.2502 39 41.8712 39H45.6212C46.7207 39 47.5989 38.0542 47.4864 36.9315C47.3889 35.9557 46.4949 35.25 45.5139 35.25Z" fill="#ECEFF1"/>
<path d="M10.4999 22.4999C9.63967 21.6397 9.63967 20.2447 10.4999 19.3844L22.4369 7.44743C23.2972 6.58718 24.6922 6.58718 25.5524 7.44743C26.4127 8.30768 26.4127 9.70268 25.5524 10.5629L13.6154 22.4999C12.7552 23.3602 11.3602 23.3602 10.4999 22.4999Z" fill="url(#paint0_linear_2740_24191)"/>
<path d="M38.2447 23.2552C39.1049 22.3949 39.1049 20.9999 38.2447 20.1397L25.5524 7.44743C24.6922 6.58718 23.2972 6.58718 22.4369 7.44743C21.5767 8.30768 21.5767 9.70268 22.4369 10.5629L35.1299 23.2552C35.9902 24.1154 37.3844 24.1154 38.2447 23.2552Z" fill="url(#paint1_linear_2740_24191)"/>
<path d="M42 24H6C4.75725 24 3.75 22.9928 3.75 21.75V20.25C3.75 19.0073 4.75725 18 6 18H42C43.2427 18 44.25 19.0073 44.25 20.25V21.75C44.25 22.9928 43.2427 24 42 24Z" fill="url(#paint2_linear_2740_24191)"/>
<path d="M36.2827 41.25H11.7172C10.938 41.25 10.191 40.9403 9.63975 40.3898C9.22275 39.9728 8.9415 39.441 8.83125 38.862L6 24H42L39.1695 38.862C39.0592 39.441 38.7772 39.9735 38.361 40.3898C37.8097 40.9403 37.062 41.25 36.2827 41.25Z" fill="url(#paint3_linear_2740_24191)"/>
<path d="M42.123 36C42.123 39.5203 39.2683 42.375 35.748 42.375C32.2278 42.375 29.373 39.5203 29.373 36C29.373 32.4797 32.2278 29.625 35.748 29.625C39.2683 29.625 42.123 32.4797 42.123 36Z" fill="url(#paint4_linear_2740_24191)"/>
<path d="M38.94 32.8309C39.184 33.1054 39.184 33.5506 38.94 33.8251L34.1898 39.1691C33.9458 39.4436 33.55 39.4436 33.306 39.1691C33.062 38.8946 33.062 38.4494 33.306 38.1749L38.0563 32.8309C38.3003 32.5564 38.696 32.5564 38.94 32.8309Z" fill="white"/>
<path d="M38.94 39.1691C38.696 39.4436 38.3003 39.4436 38.0563 39.1691L33.306 33.8251C33.062 33.5506 33.062 33.1054 33.306 32.8309C33.55 32.5564 33.9458 32.5564 34.1898 32.8309L38.94 38.1749C39.184 38.4494 39.184 38.8946 38.94 39.1691Z" fill="white"/>
<path d="M11.625 34.5C12.6607 34.5 13.5 33.6608 13.5 32.625C13.5 31.5893 12.6607 30.75 11.625 30.75H10.875C9.83925 30.75 9 29.9107 9 28.875C9 27.8393 9.83925 27 10.875 27H15C15.8287 27 16.5 26.3288 16.5 25.5C16.5 24.6712 15.8287 24 15 24H6L8.00025 34.5H11.625Z" fill="url(#paint5_linear_2740_24191)"/>
<defs>
<linearGradient id="paint0_linear_2740_24191" x1="18.0262" y1="28.0462" x2="18.0262" y2="11.7037" gradientUnits="userSpaceOnUse">
<stop stop-color="#A4A4A4"/>
<stop offset="0.63" stop-color="#7F7F7F"/>
<stop offset="1" stop-color="#6F6F6F"/>
</linearGradient>
<linearGradient id="paint1_linear_2740_24191" x1="30.3412" y1="5.62718" x2="30.3412" y2="22.7249" gradientUnits="userSpaceOnUse">
<stop stop-color="#A4A4A4"/>
<stop offset="0.63" stop-color="#7F7F7F"/>
<stop offset="1" stop-color="#6F6F6F"/>
</linearGradient>
<linearGradient id="paint2_linear_2740_24191" x1="24" y1="17.7705" x2="24" y2="23.3685" gradientUnits="userSpaceOnUse">
<stop stop-color="#42D778"/>
<stop offset="0.996" stop-color="#34B171"/>
<stop offset="1" stop-color="#34B171"/>
</linearGradient>
<linearGradient id="paint3_linear_2740_24191" x1="24" y1="41.25" x2="24" y2="16.0305" gradientUnits="userSpaceOnUse">
<stop stop-color="#31995F"/>
<stop offset="0.093" stop-color="#329E62"/>
<stop offset="0.666" stop-color="#39BA71"/>
<stop offset="1" stop-color="#3BC477"/>
</linearGradient>
<linearGradient id="paint4_linear_2740_24191" x1="35.748" y1="42.375" x2="35.748" y2="29.625" gradientUnits="userSpaceOnUse">
<stop stop-color="#FF634D"/>
<stop offset="0.204" stop-color="#FE6464"/>
<stop offset="0.521" stop-color="#FC6581"/>
<stop offset="0.794" stop-color="#FA6694"/>
<stop offset="0.989" stop-color="#FA669A"/>
<stop offset="1" stop-color="#FA669A"/>
</linearGradient>
<linearGradient id="paint5_linear_2740_24191" x1="11.25" y1="34.5" x2="11.25" y2="24" gradientUnits="userSpaceOnUse">
<stop stop-color="#4AB177"/>
<stop offset="1" stop-color="#4DC17F"/>
</linearGradient>
</defs>
</svg>
