<svg width="48" height="48" viewBox="0 0 48 48" fill="none" xmlns="http://www.w3.org/2000/svg">
<g clip-path="url(#clip0_1320_47601)">
<path d="M44.86 22.1L41.166 15.942C40.442 14.738 39.14 14 37.736 14H30C30 10.686 27.314 8 24 8H14H2C0.896 8 0 8.896 0 10C0 11.104 0.896 12 2 12V16C0.896 16 0 16.896 0 18C0 19.104 0.896 20 2 20V24C0.896 24 0 24.896 0 26C0 27.104 0.896 28 2 28V32C2 35.314 4.686 38 8 38H30H40C43.314 38 46 35.314 46 32V26.216C46 24.766 45.606 23.344 44.86 22.1Z" fill="#FFC300"/>
<path d="M13 42C15.7614 42 18 39.7614 18 37C18 34.2386 15.7614 32 13 32C10.2386 32 8 34.2386 8 37C8 39.7614 10.2386 42 13 42Z" fill="#003566"/>
<path d="M35 42C37.7614 42 40 39.7614 40 37C40 34.2386 37.7614 32 35 32C32.2386 32 30 34.2386 30 37C30 39.7614 32.2386 42 35 42Z" fill="#003566"/>
<path d="M12 12H2V16H12C13.104 16 14 15.104 14 14C14 12.896 13.104 12 12 12Z" fill="#003566"/>
<path d="M8 20H2V24H8C9.104 24 10 23.104 10 22C10 20.896 9.104 20 8 20Z" fill="#003566"/>
<path d="M4 28H2V32H4C5.104 32 6 31.104 6 30C6 28.896 5.104 28 4 28Z" fill="#003566"/>
<path d="M39.048 26H32C30.896 26 30 25.104 30 24V20C30 18.896 30.896 18 32 18H36.824C37.55 18 38.22 18.394 38.572 19.028L40.796 23.028C41.536 24.362 40.572 26 39.048 26Z" fill="#FFF9C4"/>
</g>
<defs>
<clipPath id="clip0_1320_47601">
<rect width="48" height="48" fill="white"/>
</clipPath>
</defs>
</svg>
