<svg viewBox="0 0 120 29" fill="none" xmlns="http://www.w3.org/2000/svg">
<g style="mix-blend-mode:luminosity">
<path d="M44.3624 19.889C43.629 19.5463 43.0924 19.007 42.7525 18.2686C42.4127 17.5302 42.2057 16.5298 42.129 15.2622C42.0524 14.0097 42.0166 12.4246 42.0166 10.5018C42.0166 8.41514 42.0575 6.85774 42.1418 5.83207C42.2236 4.80388 42.2696 4.44351 42.382 3.53125H46.3223C46.2022 4.0529 46.0949 5.32806 46.0054 6.68133C45.916 8.03713 45.87 9.44585 45.87 10.905V13.3645C45.87 14.2441 45.9952 14.8539 46.2431 15.1966C46.4935 15.5394 46.933 15.7107 47.5693 15.7107V20.4031H47.3419C46.0872 20.4031 45.0932 20.2317 44.3624 19.889Z" fill="currentColor"/>
<path d="M28.9747 20.1108C28.2413 19.7681 27.7047 19.2288 27.3648 18.4904C27.025 17.752 26.818 16.7516 26.7413 15.484C26.6647 14.2315 26.6289 12.6464 26.6289 10.7236C26.6289 8.63694 26.6698 7.07954 26.7541 6.05387C26.8359 5.02569 26.8819 4.66532 26.9943 3.75305H30.9346C30.8145 4.27471 30.7072 5.54986 30.6177 6.90314C30.5283 8.25893 30.4823 9.66765 30.4823 11.1268V13.5864C30.4823 14.4659 30.6075 15.0757 30.8554 15.4184C31.1058 15.7612 31.5453 15.9325 32.1816 15.9325V20.6249H31.9542C30.6995 20.6249 29.7055 20.4535 28.9747 20.1108Z" fill="currentColor"/>
<path d="M36.9706 20.1108C37.704 19.7681 38.2406 19.2288 38.5804 18.4904C38.9203 17.752 39.1273 16.7516 39.2039 15.484C39.2806 14.2315 39.3164 12.6464 39.3164 10.7236C39.3164 8.63694 39.2755 7.07954 39.1912 6.05387C39.1094 5.02569 39.0634 4.66532 38.951 3.75305H35.0107C35.1308 4.27471 35.2381 5.54986 35.3275 6.90314C35.417 8.25893 35.463 9.66765 35.463 11.1268V13.5864C35.463 14.4659 35.3377 15.0757 35.0899 15.4184C34.8395 15.7612 34.3999 15.9325 33.7637 15.9325V20.6249H33.9911C35.2458 20.6249 36.2398 20.4535 36.9706 20.1108Z" fill="currentColor"/>
<path d="M67.6012 15.3957C67.964 15.6049 68.5747 15.7082 69.4359 15.7082V20.4006C68.3473 20.4006 67.4862 20.2821 66.8525 20.0427C66.2187 19.8033 65.7409 19.3875 65.424 18.7903C65.0152 19.2363 64.3508 19.5866 63.4309 19.8411C62.7205 20.0352 61.7239 20.1763 60.4386 20.2645C59.1533 20.3527 57.7709 20.3981 56.2914 20.3981H47.5675C47.4014 20.3981 47.2839 20.2393 47.2174 19.9167C47.1485 19.5967 47.1152 18.9742 47.1152 18.0494C47.1152 17.1245 47.1459 16.4844 47.2047 16.1719C47.266 15.8594 47.3861 15.7032 47.5675 15.7032H56.6312C60.666 15.7032 62.9147 15.5923 63.3849 15.368C63.4156 15.1437 63.4309 14.8464 63.4309 14.4734C63.4309 13.982 63.2827 13.6342 62.9888 13.4351C62.695 13.2335 62.1992 13.1327 61.5042 13.1327H54.0248C51.7429 13.1327 50.0053 12.8731 48.812 12.3515L49.2642 8.55122C52.8749 6.55533 55.5554 4.693 57.3084 2.96423L59.3475 5.75899C58.954 6.326 58.2973 6.92578 57.3748 7.55832C56.4523 8.19085 55.3868 8.78307 54.1807 9.33496H54.3621C55.7369 9.33496 57.1269 9.31228 58.5324 9.26692C60.1933 9.23668 61.3355 9.22156 61.9539 9.22156C63.7222 9.22156 65.0126 9.64241 65.8303 10.4841C66.6455 11.3258 67.0543 12.5808 67.0543 14.2491C67.0543 14.801 67.2358 15.1815 67.5986 15.3882L67.6012 15.3957Z" fill="currentColor"/>
<path d="M78.1027 19.453C77.0985 20.0855 75.5218 20.403 73.3779 20.403H69.4376C69.2562 20.403 69.1361 20.2443 69.0748 19.9217C69.016 19.6017 68.9854 18.9792 68.9854 18.0543C68.9854 17.1295 69.016 16.4894 69.0748 16.1769C69.1361 15.8644 69.2562 15.7082 69.4376 15.7082H73.4904C74.7144 15.7082 75.5448 15.6326 75.9843 15.4839C75.9843 15.4083 75.946 15.1638 75.8719 14.7455C75.8566 14.6119 75.7952 14.1936 75.6905 13.493C75.5857 12.7924 75.5321 12.1146 75.5321 11.4593C75.5321 10.8923 75.555 10.4463 75.601 10.1187L79.273 9.5592V10.4538C79.273 12.0339 79.3548 13.6115 79.5234 15.1916C79.5848 15.9375 79.6129 16.3684 79.6129 16.4869C79.6129 17.8275 79.1095 18.8154 78.1052 19.4479L78.1027 19.453Z" fill="currentColor"/>
<path d="M85.6597 17.9334C85.5396 18.8356 85.3351 19.7327 85.049 20.6273L81.6504 19.8461C81.7705 19.1909 81.8574 18.5004 81.911 17.7797C81.9647 17.0564 81.9902 16.0332 81.9902 14.7077C81.9902 12.6513 81.8778 8.72253 81.6504 3.47827H85.8437V14.8211C85.8437 15.998 85.7823 17.0362 85.6622 17.9384L85.6597 17.9334Z" fill="currentColor"/>
<path d="M81.9534 23.2307L81.7822 22.5452L84.5854 22.0311L84.7566 22.7166L81.9534 23.2307Z" fill="currentColor"/>
<path d="M68.6378 8.35466C69.7344 8.35466 70.6233 7.47799 70.6233 6.39657C70.6233 5.31514 69.7344 4.43848 68.6378 4.43848C67.5413 4.43848 66.6523 5.31514 66.6523 6.39657C66.6523 7.47799 67.5413 8.35466 68.6378 8.35466Z" fill="currentColor"/>
<path d="M73.9122 8.35466C75.0088 8.35466 75.8977 7.47799 75.8977 6.39657C75.8977 5.31514 75.0088 4.43848 73.9122 4.43848C72.8157 4.43848 71.9268 5.31514 71.9268 6.39657C71.9268 7.47799 72.8157 8.35466 73.9122 8.35466Z" fill="currentColor"/>
<path d="M18.1504 15.8669V20.5643H17.9204C17.2151 20.5643 16.6708 20.4585 16.2901 20.2468C16.1828 22.1797 15.3778 23.722 13.8779 24.7502C12.3754 25.7784 10.1625 26.2899 7.23663 26.2899C2.41221 26.2899 0 24.4402 0 20.7382C0 20.088 0.0562168 19.4429 0.171206 18.8003C0.286195 18.1577 0.4574 17.4067 0.687378 16.5448C1.04001 15.2016 1.23166 14.181 1.26232 13.4855L4.79376 13.2587C4.87042 13.5913 4.90875 13.8937 4.90875 14.1659C4.90875 14.7102 4.77843 15.4788 4.51779 16.4768C4.3798 17.0362 4.27759 17.5201 4.20859 17.9283C4.1396 18.3366 4.10638 18.7448 4.10638 19.1506C4.10638 19.9217 4.41302 20.5089 5.02629 20.9171C5.63957 21.3254 6.31928 21.5295 7.69914 21.5295C9.32176 21.5295 10.533 21.3481 11.3302 20.9852C12.1275 20.6223 12.5261 20.1611 12.5261 19.6017C12.5261 18.455 12.6002 17.4546 12.0662 13.6165L15.7433 11.2174L16.0882 14.05C16.1802 14.7455 16.3719 15.2218 16.6632 15.4763C16.9545 15.7334 17.3761 15.8619 17.9255 15.8619H18.1555L18.1504 15.8669Z" fill="currentColor"/>
<path d="M32.0715 20.083C32.0383 19.7202 32.0204 19.1078 32.0204 18.2484C32.0204 17.3891 32.0383 16.7767 32.0715 16.4138C32.1073 16.0509 31.9463 15.9325 32.0307 15.9325H34.379L34.5476 20.6299H31.9361C31.8518 20.6299 32.1073 20.4485 32.0715 20.0856V20.083Z" fill="currentColor"/>
<path d="M18.5441 26.29C19.6406 26.29 20.5295 25.4133 20.5295 24.3319C20.5295 23.2504 19.6406 22.3738 18.5441 22.3738C17.4475 22.3738 16.5586 23.2504 16.5586 24.3319C16.5586 25.4133 17.4475 26.29 18.5441 26.29Z" fill="currentColor"/>
<path d="M23.8156 26.29C24.9121 26.29 25.801 25.4133 25.801 24.3319C25.801 23.2504 24.9121 22.3738 23.8156 22.3738C22.719 22.3738 21.8301 23.2504 21.8301 24.3319C21.8301 25.4133 22.719 26.29 23.8156 26.29Z" fill="currentColor"/>
<path d="M7.81165 11.9911C8.9082 11.9911 9.79712 11.1145 9.79712 10.033C9.79712 8.95162 8.9082 8.07495 7.81165 8.07495C6.7151 8.07495 5.82617 8.95162 5.82617 10.033C5.82617 11.1145 6.7151 11.9911 7.81165 11.9911Z" fill="currentColor"/>
<path d="M23.7929 19.6144C22.7887 20.2469 21.212 20.5644 19.0681 20.5644H17.9591C17.7777 20.5644 17.6576 20.4057 17.5963 20.0831C17.5375 19.763 17.5068 19.1406 17.5068 18.2157C17.5068 17.2909 17.5375 16.6508 17.5963 16.3383C17.6576 16.0258 17.7777 15.8695 17.9591 15.8695H19.1806C20.4046 15.8695 21.235 15.7939 21.6746 15.6453C21.6746 15.5697 21.6362 15.3252 21.5621 14.9069C21.5468 14.7733 21.4855 14.355 21.3807 13.6544C21.2759 12.9538 21.2223 12.2759 21.2223 11.6207C21.2223 11.0537 21.2453 10.6076 21.2913 10.28L24.9632 9.72058V10.6152C24.9632 12.1953 25.045 13.7728 25.2137 15.3529C25.275 16.0989 25.3031 16.5298 25.3031 16.6482C25.3031 17.9889 24.7997 18.9768 23.7955 19.6093L23.7929 19.6144Z" fill="currentColor"/>
<path d="M12.4982 17.0312C12.4982 16.9556 12.4599 16.7112 12.3858 16.2929C12.3704 16.1593 12.3091 15.741 12.2043 15.0404C12.0996 14.3398 12.0459 13.6619 12.0459 13.0067C12.0459 12.4397 12.0689 11.9936 12.1149 11.666L15.7869 11.1066V12.0012C15.7869 13.5813 15.8686 15.1588 16.0373 16.7389C16.0986 17.4849 16.1267 17.9158 16.1267 18.0342C16.1267 19.3749 15.6233 20.3628 14.6191 20.9953" fill="currentColor"/>
</g>
<path fill-rule="evenodd" clip-rule="evenodd" d="M117.234 9.17468C118.483 9.17468 119.439 10.271 119.255 11.4882L117.272 24.5946C117.029 26.1999 115.631 27.3876 113.986 27.3876H98.3343C96.6888 27.3873 95.2909 26.1997 95.0481 24.5946L93.0657 11.4882C92.8817 10.2684 93.8376 9.17468 95.0872 9.17468H117.234ZM109.507 14.2655C108.204 13.2324 106.719 12.8866 105.081 13.204C103.975 13.4182 103.044 13.9579 102.283 14.7694C101.608 15.49 101.187 16.3392 100.995 17.3016C100.852 18.0198 100.863 18.7356 101.029 19.4462C101.279 20.5122 101.818 21.4199 102.649 22.1532C103.367 22.7881 104.202 23.1988 105.153 23.3827C106.108 23.5666 107.059 23.4807 107.999 23.2968C109.198 23.0649 110.296 22.594 111.308 21.9188C111.4 21.8558 111.434 21.785 111.434 21.6766C111.431 20.9433 111.431 20.2121 111.431 19.4813C111.431 19.4436 111.421 19.4029 111.413 19.3427C111.339 19.4107 111.283 19.4645 111.227 19.5175C110.539 20.1853 109.749 20.701 108.855 21.0614C108.114 21.3587 107.339 21.5182 106.542 21.5712C105.686 21.6265 104.895 21.4447 104.195 20.9384C102.667 19.8295 102.332 17.6901 103.586 16.1805C104.125 15.5304 104.831 15.14 105.679 15.0165C107.302 14.7796 108.811 15.7272 109.327 17.2216C109.348 17.2744 109.328 17.3721 109.287 17.41C109.109 17.5813 108.929 17.7627 108.725 17.9012C107.184 18.9496 105.592 19.0277 103.951 18.1356C103.906 18.1105 103.854 18.0883 103.781 18.0507L103.783 18.0555C103.775 18.1333 103.768 18.1736 103.768 18.2137C103.732 19.5443 104.813 20.6438 106.164 20.6464C107.036 20.6489 107.874 20.4775 108.674 20.1298C109.783 19.6484 110.665 18.8996 111.347 17.9169C111.385 17.864 111.411 17.7806 111.401 17.7177C111.362 17.4631 111.326 17.2058 111.26 16.9589C110.974 15.8755 110.391 14.9685 109.507 14.2655Z" fill="currentColor"/>
<path d="M101.378 6.87129C101.378 6.82089 101.378 6.77049 101.378 6.72008C101.378 4.12946 103.54 2 106.164 2C108.788 2 110.95 4.13198 110.95 6.72008" stroke="currentColor" stroke-width="4" stroke-miterlimit="10" stroke-linecap="round"/>
</svg>
