<svg width="103" height="39" viewBox="0 0 103 39" fill="none" xmlns="http://www.w3.org/2000/svg">
<path d="M4 0.5H99C100.933 0.5 102.5 2.067 102.5 4V34.8018C102.5 36.7348 100.933 38.3018 99 38.3018H4C2.067 38.3018 0.5 36.7348 0.5 34.8018V4C0.500001 2.067 2.067 0.5 4 0.5Z" fill="black"/>
<path d="M4 0.5H99C100.933 0.5 102.5 2.067 102.5 4V34.8018C102.5 36.7348 100.933 38.3018 99 38.3018H4C2.067 38.3018 0.5 36.7348 0.5 34.8018V4C0.500001 2.067 2.067 0.5 4 0.5Z" stroke="#A6A6A6"/>
<path d="M47.3255 19.598V23.0939C47.3255 23.6508 47.197 24.0621 46.9487 24.3449C46.7003 24.619 46.3664 24.7647 45.9639 24.7647C45.5699 24.7647 45.2359 24.6276 44.9962 24.3449C44.7478 24.0707 44.6193 23.6508 44.6193 23.0939V18.8954C44.6193 18.2356 44.5937 17.7129 44.5508 17.3531C44.508 16.9932 44.3796 16.6847 44.1912 16.4534C43.9856 16.2135 43.6773 16.1021 43.2491 16.1021C42.3842 16.1021 41.819 16.3934 41.5535 16.9846C41.2795 17.5758 41.1425 18.4241 41.1425 19.5209V23.0682C41.1425 23.608 41.014 24.0364 40.7656 24.302C40.5173 24.5848 40.1833 24.7219 39.7894 24.7219C39.3954 24.7219 39.0615 24.5848 38.8131 24.302C38.5648 24.0193 38.4277 23.608 38.4277 23.0682V15.5537C38.4277 15.0567 38.5391 14.6797 38.7703 14.4312C38.9929 14.1742 39.3012 14.0457 39.6695 14.0457C40.0292 14.0457 40.3289 14.1742 40.5687 14.4055C40.8085 14.6454 40.9284 14.9882 40.9284 15.3995V15.6479C41.3822 15.1081 41.8704 14.6969 42.3928 14.4484C42.9152 14.1913 43.4889 14.0628 44.1312 14.0628C44.7906 14.0628 45.3558 14.1999 45.8268 14.4569C46.3064 14.714 46.6918 15.1167 47.0086 15.6479C47.454 15.1081 47.925 14.7054 48.4388 14.4484C48.9526 14.1913 49.5007 14.0628 50.1259 14.0628C50.8367 14.0628 51.4618 14.1999 51.9842 14.4826C52.5066 14.7654 52.892 15.1767 53.1489 15.6994C53.3715 16.1792 53.4914 16.9246 53.4914 17.9443V23.0853C53.4914 23.6422 53.363 24.0535 53.1146 24.3363C52.8663 24.6105 52.5323 24.7561 52.1298 24.7561C51.7358 24.7561 51.4019 24.619 51.1535 24.3363C50.9052 24.0535 50.7681 23.6422 50.7681 23.1024V18.6812C50.7681 18.1156 50.7424 17.6615 50.6996 17.3188C50.6568 16.976 50.5198 16.6933 50.3143 16.4534C50.1002 16.2306 49.7833 16.1021 49.3466 16.1021C48.9954 16.1021 48.67 16.2049 48.3617 16.4105C48.0534 16.6162 47.8051 16.8904 47.6338 17.2417C47.4283 17.6958 47.3255 18.4755 47.3255 19.598Z" fill="#0091EA"/>
<path d="M58.4583 25.0731L58.6981 24.4819L55.4696 16.342C55.2641 15.8793 55.1784 15.5365 55.1784 15.3223C55.1784 15.0995 55.2384 14.8939 55.3497 14.6968C55.461 14.4998 55.6237 14.3455 55.8293 14.2341C56.0348 14.1227 56.2403 14.0628 56.463 14.0628C56.8398 14.0628 57.131 14.1913 57.3279 14.4226C57.5249 14.6626 57.6876 15.0139 57.8418 15.4508L60.0598 21.9285L62.1665 15.905C62.3377 15.4166 62.4833 15.031 62.6203 14.7568C62.7574 14.4826 62.8944 14.2941 63.0485 14.1999C63.1941 14.1056 63.4082 14.0542 63.6822 14.0542C63.8878 14.0542 64.0676 14.1142 64.2646 14.2084C64.4616 14.3113 64.59 14.4569 64.6842 14.6368C64.787 14.8168 64.8298 15.0139 64.8298 15.2024C64.8041 15.3309 64.7613 15.4937 64.7013 15.725C64.6414 15.9478 64.5729 16.1792 64.4872 16.4019L61.0617 25.3816C60.7706 26.1785 60.4708 26.7868 60.1968 27.2409C59.9142 27.6951 59.5374 28.0378 59.0749 28.2691C58.6125 28.5091 57.9873 28.629 57.1909 28.629C56.4202 28.629 55.8378 28.5519 55.4525 28.3805C55.0671 28.2092 54.8701 27.9007 54.8701 27.4637C54.8701 27.1553 54.9643 26.9325 55.1442 26.7611C55.324 26.5897 55.598 26.5126 55.9577 26.5126C56.0947 26.5126 56.2403 26.5383 56.3773 26.5726C56.5486 26.6069 56.6856 26.6326 56.8055 26.6326C57.1138 26.6326 57.345 26.5897 57.5163 26.4955C57.6876 26.4012 57.8417 26.247 57.9788 26.0328C58.1158 25.8357 58.2785 25.5101 58.4583 25.0731Z" fill="#0091EA"/>
<path d="M73.2711 23.5482L70.9503 19.7352L69.5202 21.089V23.1797C69.5202 23.6938 69.3831 24.0794 69.1262 24.345C68.8522 24.6192 68.5439 24.7563 68.2099 24.7563C67.7988 24.7563 67.482 24.6192 67.2593 24.345C67.0367 24.0708 66.9082 23.6767 66.9082 23.154V11.938C66.9082 11.3468 67.0195 10.9098 67.2508 10.6013C67.4734 10.2929 67.7903 10.1472 68.2185 10.1472C68.6295 10.1472 68.9464 10.2843 69.1862 10.5671C69.426 10.8413 69.5373 11.244 69.5373 11.7923V18.1672L72.4918 15.0569C72.8515 14.6713 73.1341 14.4143 73.331 14.26C73.528 14.1229 73.7592 14.0458 74.0333 14.0458C74.3587 14.0458 74.6327 14.1487 74.8468 14.3629C75.0609 14.5685 75.1723 14.8256 75.1723 15.1426C75.1723 15.5282 74.8211 16.0423 74.1103 16.6849L72.7144 17.9702L75.412 22.2115C75.6176 22.5285 75.7546 22.7684 75.8402 22.9227C75.9344 23.0769 75.9687 23.2397 75.9687 23.3854C75.9687 23.8052 75.8573 24.1308 75.6261 24.3707C75.4035 24.6107 75.0952 24.7306 74.7269 24.7306C74.4101 24.7306 74.1617 24.6364 73.9904 24.4736C73.8106 24.3022 73.5623 24.0023 73.2711 23.5482Z" fill="#0091EA"/>
<path d="M84.6136 20.0522H79.4668C79.4754 20.652 79.5953 21.1746 79.8265 21.6288C80.0577 22.0829 80.366 22.4342 80.7514 22.657C81.1368 22.8798 81.5649 23.0083 82.036 23.0083C82.3528 23.0083 82.6354 22.974 82.9009 22.8969C83.1664 22.8198 83.4147 22.6998 83.6631 22.5456C83.9114 22.3914 84.1255 22.22 84.331 22.0315C84.5366 21.843 84.8106 21.6116 85.136 21.2946C85.2731 21.1832 85.4615 21.1232 85.7184 21.1232C85.9924 21.1232 86.2065 21.1918 86.3778 21.346C86.5491 21.4917 86.6261 21.6973 86.6261 21.9715C86.6261 22.2114 86.5319 22.4856 86.3435 22.8026C86.1637 23.1197 85.8811 23.4281 85.5043 23.7195C85.1275 24.0108 84.6565 24.2507 84.0913 24.4478C83.5261 24.6448 82.8666 24.7305 82.1302 24.7305C80.4431 24.7305 79.1243 24.2507 78.1994 23.291C77.2574 22.3228 76.7949 21.0204 76.7949 19.3667C76.7949 18.587 76.9062 17.8672 77.146 17.1989C77.3687 16.5306 77.7112 15.9651 78.1566 15.4852C78.6019 15.0054 79.1414 14.6455 79.7922 14.3971C80.4345 14.1486 81.1624 14.0115 81.9418 14.0115C82.9694 14.0115 83.8429 14.2257 84.5794 14.6541C85.3159 15.0825 85.864 15.648 86.2322 16.3335C86.609 17.0104 86.7717 17.713 86.7717 18.4328C86.7717 19.0925 86.5748 19.5209 86.2065 19.718C85.8297 19.9494 85.2988 20.0522 84.6136 20.0522ZM79.4668 18.5527H84.2283C84.1598 17.653 83.92 16.9761 83.5004 16.5306C83.0807 16.085 82.5241 15.8622 81.8304 15.8622C81.171 15.8622 80.6401 16.085 80.2204 16.5391C79.8094 17.0018 79.561 17.6702 79.4668 18.5527Z" fill="#0091EA"/>
<path d="M89.1338 14.2941H89.4164V12.7175C89.4164 12.2977 89.425 11.955 89.4507 11.7236C89.4764 11.4837 89.5277 11.2695 89.6476 11.0981C89.7504 10.9182 89.896 10.7725 90.0929 10.6526C90.2899 10.5412 90.504 10.4812 90.7352 10.4812C91.0607 10.4812 91.3689 10.6097 91.643 10.8582C91.8228 11.0296 91.9342 11.2352 91.9855 11.4666C92.0284 11.7065 92.0541 12.0492 92.0541 12.4862V14.277H93.0218C93.3986 14.277 93.6812 14.3712 93.8696 14.534C94.0665 14.714 94.1607 14.9453 94.1607 15.2109C94.1607 15.5623 94.0237 15.8107 93.7411 15.9478C93.4585 16.0849 93.0646 16.162 92.5422 16.162H92.0541V20.9946C92.0541 21.4059 92.0626 21.7229 92.0969 21.9457C92.1311 22.1685 92.1996 22.3398 92.3195 22.4855C92.448 22.6226 92.6449 22.6911 92.9276 22.6911C93.0817 22.6911 93.2872 22.6654 93.5527 22.614C93.8182 22.5626 94.0152 22.5369 94.1607 22.5369C94.3748 22.5369 94.5718 22.6312 94.7431 22.794C94.9144 22.9653 95 23.1795 95 23.428C95 23.8479 94.7773 24.1735 94.3063 24.4048C93.8439 24.6362 93.1845 24.7476 92.311 24.7476C91.4803 24.7476 90.8722 24.6105 90.4441 24.3277C90.0244 24.0535 89.7418 23.6679 89.6134 23.1795C89.4764 22.6911 89.4164 22.0314 89.4164 21.226V16.1792H89.0653C88.6885 16.1792 88.3973 16.0849 88.2004 15.905C87.9948 15.7251 87.9092 15.4937 87.9092 15.2281C87.9092 14.9539 88.012 14.7311 88.226 14.5512C88.4316 14.3712 88.7399 14.2941 89.1338 14.2941Z" fill="#0091EA"/>
<path d="M21.3938 32.8019C28.7909 32.8019 34.7875 26.8021 34.7875 19.401C34.7875 11.9998 28.7909 6 21.3938 6C13.9966 6 8 11.9998 8 19.401C8 26.8021 13.9966 32.8019 21.3938 32.8019Z" fill="#0091EA"/>
<path d="M29.6055 17.8076C29.4942 15.2714 27.4047 13.2578 24.8441 13.2578C23.4225 13.2578 22.1465 13.8833 21.273 14.8772C20.3995 13.8919 19.1235 13.2578 17.7019 13.2578C15.1927 13.2578 13.1374 15.1943 12.949 17.662C12.9404 17.7219 12.9404 17.7819 12.9404 17.8419V23.2143C12.9404 23.874 13.4714 24.4053 14.1308 24.4053H14.1565C14.8159 24.4053 15.3468 23.874 15.3468 23.2143V18.0133H15.3554C15.3554 16.7109 16.4173 15.6484 17.719 15.6484C19.0207 15.6484 20.0826 16.7109 20.0826 18.0133H20.0912V22.4088C20.0912 23.0686 20.6221 23.5999 21.2815 23.5999H21.3072C21.9667 23.5999 22.4976 23.0686 22.4976 22.4088V18.0047C22.5062 16.7023 23.5595 15.6484 24.8612 15.6484C26.1629 15.6484 27.2248 16.7109 27.2248 18.0133H27.2334V23.2314C27.2334 23.8826 27.7643 24.4053 28.4066 24.4053H28.4323C29.0832 24.4053 29.6055 23.874 29.6055 23.2314V17.9104C29.6055 17.8762 29.6055 17.8505 29.6055 17.8076Z" fill="white"/>
<path d="M25.1003 24.8847C25.0404 24.7991 24.8691 24.9704 24.8691 24.9704C24.2011 25.6816 22.8395 26.1443 21.4179 26.1443C20.0049 26.1443 18.6347 25.6816 17.9667 24.9704C17.9667 24.9704 17.7954 24.7905 17.7355 24.8847C17.667 24.9876 17.7697 25.1589 17.7697 25.1589C18.6175 26.3842 19.9021 26.9326 21.4093 26.9326C22.9165 26.9326 24.2011 26.3842 25.0489 25.1589C25.0661 25.1589 25.1688 24.9961 25.1003 24.8847Z" fill="white"/>
</svg>
