<svg width="16" height="16" viewBox="0 0 16 16" fill="none" xmlns="http://www.w3.org/2000/svg">
<path d="M11.5 2.75H14.125C14.3571 2.75 14.5796 2.84219 14.7437 3.00628C14.9078 3.17038 15 3.39294 15 3.625V13.25C15 13.7141 14.8156 14.1592 14.4874 14.4874C14.1592 14.8156 13.7141 15 13.25 15M13.25 15C12.7859 15 12.3408 14.8156 12.0126 14.4874C11.6844 14.1592 11.5 13.7141 11.5 13.25V1.875C11.5 1.64294 11.4078 1.42038 11.2437 1.25628C11.0796 1.09219 10.8571 1 10.625 1H1.875C1.64294 1 1.42038 1.09219 1.25628 1.25628C1.09219 1.42038 1 1.64294 1 1.875V12.375C1 13.0712 1.27656 13.7389 1.76884 14.2312C2.26113 14.7234 2.92881 15 3.625 15H13.25ZM4.5 4.5H8M4.5 8H8M4.5 11.5H8" stroke="currentColor" stroke-width="2" stroke-linecap="round" stroke-linejoin="round"/>
</svg>
