<svg width="16" height="16" viewBox="0 0 16 16" fill="none" xmlns="http://www.w3.org/2000/svg">
<path d="M10.8824 5.11765L15 1M15 4.29412V1H11.7059M2.64706 1H5.94118L7.58824 5.11765L5.52941 6.35294C6.41138 8.14126 7.85874 9.58862 9.64706 10.4706L10.8824 8.41176L15 10.0588V13.3529C15 13.7898 14.8265 14.2087 14.5176 14.5176C14.2087 14.8265 13.7898 15 13.3529 15C10.1406 14.8048 7.11072 13.4406 4.83504 11.165C2.55936 8.88929 1.19522 5.85943 1 2.64706C1 2.21023 1.17353 1.7913 1.48241 1.48241C1.7913 1.17353 2.21023 1 2.64706 1Z" stroke="currentColor" stroke-width="2" stroke-linecap="round" stroke-linejoin="round"/>
</svg>
