<svg width="18" height="18" viewBox="0 0 18 18" fill="none" xmlns="http://www.w3.org/2000/svg">
<path d="M6.75 10.5L11.25 6" stroke="currentColor" stroke-width="2" stroke-linecap="round" stroke-linejoin="round"/>
<path d="M7.125 6.75C7.33211 6.75 7.5 6.58211 7.5 6.375C7.5 6.16789 7.33211 6 7.125 6C6.91789 6 6.75 6.16789 6.75 6.375C6.75 6.58211 6.91789 6.75 7.125 6.75Z" stroke="currentColor" stroke-width="2" stroke-linecap="round" stroke-linejoin="round"/>
<path d="M10.875 10.5C11.0821 10.5 11.25 10.3321 11.25 10.125C11.25 9.91789 11.0821 9.75 10.875 9.75C10.6679 9.75 10.5 9.91789 10.5 10.125C10.5 10.3321 10.6679 10.5 10.875 10.5Z" stroke="currentColor" stroke-width="2" stroke-linecap="round" stroke-linejoin="round"/>
<path d="M3.75 15.75V3.75C3.75 3.35218 3.90804 2.97064 4.18934 2.68934C4.47064 2.40804 4.85218 2.25 5.25 2.25H12.75C13.1478 2.25 13.5294 2.40804 13.8107 2.68934C14.092 2.97064 14.25 3.35218 14.25 3.75V15.75L12 14.25L10.5 15.75L9 14.25L7.5 15.75L6 14.25L3.75 15.75Z" stroke="currentColor" stroke-width="2" stroke-linecap="round" stroke-linejoin="round"/>
</svg>
