<svg width="24" height="24" viewBox="0 0 24 24" fill="none" xmlns="http://www.w3.org/2000/svg">
<g clip-path="url(#clip0_1558_22740)">
<path d="M19.1532 12.4912C18.0179 13.698 16.8703 14.8164 16.288 15.2843C15.0304 16.2941 13.8783 16.8706 12.708 17.0749C12.0988 17.1805 11.0919 17.1395 10.4962 16.9835C9.96493 16.845 9.99945 16.8221 9.79871 17.4294C9.63553 17.9099 9.53287 18.4089 9.49311 18.9148L9.46339 19.3058L9.3231 19.2771C8.15564 19.0455 6.99889 18.0424 6.55208 16.8749C6.401 16.5022 6.31644 16.1058 6.30223 15.7038L6.28691 15.3771L5.98999 15.1042C5.37161 14.5373 4.96864 13.8436 4.84182 13.124C4.63813 11.9777 5.16846 10.6816 6.31959 9.51521C7.53402 8.28286 9.32402 7.31532 11.0785 6.94105C11.7107 6.80658 12.8253 6.77104 13.3874 6.86906C14.4807 7.05929 15.3733 7.61177 15.9288 8.44383C16.1036 8.7042 16.1161 8.74167 16.0988 8.97703C16.0944 9.15005 16.0325 9.31669 15.923 9.45069C15.4761 10.0762 14.1474 10.7459 12.7177 11.0649C10.1956 11.6265 8.59193 10.9283 8.8427 9.37436C8.86771 9.21746 8.88118 9.08224 8.87251 9.07366C8.84177 9.04283 8.591 9.17362 8.32002 9.3619C7.85974 9.68282 7.45243 10.3073 7.31113 10.9059C7.27661 11.0558 7.26313 11.296 7.27855 11.5305C7.29774 11.8485 7.3294 11.9667 7.46314 12.2376C7.55156 12.4164 7.72739 12.67 7.85522 12.8036L8.08596 13.0447L7.99357 13.1618C7.72147 13.5183 7.50231 13.9121 7.34288 14.3312C7.162 14.8948 7.12728 15.495 7.242 16.0757C7.34094 16.5187 7.64644 17.1278 7.95203 17.4861C8.18453 17.7599 8.7181 18.2202 8.80329 18.2202C8.82636 18.2202 8.84556 18.174 8.84556 18.1186C8.84648 17.8971 9.02231 17.1838 9.15881 16.8437C9.56492 15.8271 10.4569 14.9608 11.8683 14.211C12.1037 14.0861 12.783 13.7594 13.3787 13.4837C14.6854 12.8784 15.3994 12.5085 15.7913 12.2298C16.9212 11.4294 17.6197 10.2455 17.8474 8.74684C17.9305 8.19915 17.9305 7.17687 17.8474 6.62632C17.4938 4.28291 15.7385 2.69006 13.2182 2.42683C10.4079 2.13148 6.83072 4.30331 4.62659 7.64159C3.5541 9.2649 2.82985 11.0667 2.52527 12.8708C2.40713 13.5704 2.36292 14.8693 2.43593 15.5131C2.62135 17.1504 3.22571 18.4706 4.26432 19.5062C4.78445 20.0291 5.39267 20.4561 6.06106 20.7678C8.33627 21.8536 10.8555 21.8776 13.0703 20.836C14.0272 20.3854 14.9669 19.6869 15.9748 18.6743C16.9548 17.6894 17.6177 16.8679 19.4261 14.3909C20.4253 13.0237 21.2166 12.1157 21.609 11.888V10.2674L21.3782 10.4254C20.8423 10.7916 20.139 11.4439 19.1532 12.4912Z" fill="#667085"/>
</g>
<defs>
<clipPath id="clip0_1558_22740">
<rect width="19.2086" height="19.2" fill="white" transform="translate(2.40039 2.40002)"/>
</clipPath>
</defs>
</svg>
