<svg width="24" height="24" viewBox="0 0 24 24" fill="none" xmlns="http://www.w3.org/2000/svg">
<g clip-path="url(#clip0_1558_22717)">
<path d="M12.2996 2.40002H12.3618C12.3788 3.91081 12.353 6.94122 12.353 6.94122C10.9083 6.13084 9.45373 5.33957 8.00977 4.52672C8.95567 3.98906 9.90228 3.45271 10.8496 2.91764C11.2983 2.66449 11.7805 2.44705 12.2992 2.40002L12.2996 2.40002Z" fill="currentColor"/>
<path d="M12.3591 2.39975H12.4651C13.0269 2.45031 13.5354 2.71796 14.0187 2.9895C14.9201 3.49793 15.8202 4.00848 16.7192 4.52115C15.2696 5.3248 13.8041 6.14118 12.3523 6.94236C12.34 5.43158 12.3746 3.90983 12.3576 2.39905L12.3591 2.39975Z" fill="currentColor"/>
<path d="M8.01097 4.52502L12.3542 6.93952L7.98092 9.49438C7.98092 9.49438 7.9788 7.87329 7.98375 7.06504C7.97986 6.22567 8.01097 4.52502 8.01097 4.52502Z" fill="currentColor"/>
<path d="M16.7235 4.52112L16.7359 4.52784C16.7323 6.03367 16.7359 7.5395 16.7359 9.04534C16.7334 9.19277 16.732 9.49684 16.732 9.49684L12.3545 6.94127C12.3545 6.94127 15.2742 5.32583 16.7249 4.52112H16.7235Z" fill="currentColor"/>
<path d="M16.7322 4.52881C17.6967 5.07719 18.6545 5.63759 19.6127 6.19658C20.0762 6.4568 20.5673 6.74531 20.8205 7.2357C19.4635 7.98703 16.7304 9.49852 16.7304 9.49852C16.7304 9.49852 16.7283 9.1941 16.7304 9.04666C16.7304 7.54071 16.7304 6.03488 16.7304 4.52916L16.7322 4.52881Z" fill="currentColor"/>
<path d="M5.24433 6.1128C6.15122 5.58245 8.00885 4.526 8.00885 4.526L7.98446 9.49501C7.98446 9.49501 5.262 7.99412 3.9082 7.24421C4.20308 6.71846 4.73555 6.3999 5.24433 6.1128Z" fill="currentColor"/>
<path d="M3.59961 9.22386C3.6035 8.5581 3.59148 7.85026 3.9058 7.2439C5.26137 7.99381 7.98099 9.49469 7.98099 9.49469C6.51829 10.3404 5.06266 11.1989 3.59961 12.0457C3.59961 11.1052 3.59961 10.1651 3.59961 9.22386Z" fill="currentColor"/>
<path d="M20.8208 7.23584C21.0874 7.73437 21.1263 8.31421 21.1114 8.86896V12.0549L16.7314 9.4983C16.7314 9.4983 19.4638 7.98646 20.8208 7.23584Z" fill="currentColor"/>
<path d="M3.59961 12.0456C5.0616 11.197 6.51723 10.3404 7.97993 9.49463C7.97851 11.1514 7.97851 12.808 7.97993 14.4643C7.75541 14.3706 7.55105 14.237 7.33679 14.1235C6.09224 13.4386 4.85052 12.7379 3.59961 12.0597V12.0456Z" fill="currentColor"/>
<path d="M16.7308 9.49854C16.7308 9.49854 21.1108 12.0492 21.1108 12.0552C19.6551 12.862 16.7311 14.4806 16.7311 14.4806C16.7474 13.835 16.7266 13.1915 16.7311 12.5456V9.49854H16.7308Z" fill="currentColor"/>
<path d="M3.59961 12.0597C4.84982 12.7389 6.08977 13.4386 7.33679 14.1245C7.55105 14.238 7.75541 14.372 7.97993 14.4653L7.9824 14.4763C6.6398 15.2596 5.29672 16.0432 3.95317 16.8272C3.81175 16.6132 3.74104 16.3608 3.68906 16.1112C3.60456 15.694 3.59961 15.2697 3.59961 14.8454V12.0593V12.0597Z" fill="currentColor"/>
<path d="M21.1111 12.0552C21.1133 13.0328 21.1111 14.0104 21.1111 14.988C21.1253 15.6149 21.1069 16.2828 20.7728 16.8354C19.5636 16.1282 16.7305 14.4806 16.7305 14.4806C16.7305 14.4806 19.6555 12.862 21.1111 12.0552Z" fill="currentColor"/>
<path d="M3.95312 16.8255C5.29667 16.041 6.64022 15.2577 7.98377 14.4753C7.97493 16.1311 7.9866 17.7872 7.97811 19.4426C7.02702 18.9063 6.0784 18.3659 5.13226 17.8211C4.68925 17.5595 4.23598 17.2685 3.95312 16.8255Z" fill="currentColor"/>
<path d="M7.98417 14.4753C9.44369 15.2808 10.8951 16.0933 12.3542 16.8987C10.8976 17.7472 7.98064 19.4443 7.97852 19.4426C7.987 17.7872 7.97533 16.1311 7.98417 14.4753Z" fill="currentColor"/>
<path d="M16.7243 14.4834L16.7314 14.4802C16.7356 16.1363 16.7225 17.7928 16.7381 19.4489L16.7271 19.4542C15.5724 18.7644 14.4038 18.0965 13.2438 17.4148C12.9517 17.2486 12.3535 16.8986 12.3535 16.8986C12.3535 16.8986 15.2676 15.2772 16.7243 14.4834Z" fill="currentColor"/>
<path d="M16.7316 14.4804C16.8607 14.5685 19.5647 16.1287 20.7739 16.8352C20.6021 17.1286 20.3298 17.3439 20.0555 17.5366C19.6128 17.8343 19.1405 18.0836 18.6801 18.3516C18.0327 18.7175 17.3896 19.0909 16.7383 19.4477C16.7228 17.7916 16.7359 16.1351 16.7316 14.479V14.4804Z" fill="currentColor"/>
<path d="M12.3533 16.8989V21.5989C11.9909 21.5455 11.5959 21.462 11.2749 21.2778C10.176 20.6676 9.07324 20.0609 7.97754 19.4421C9.43352 18.5936 10.8966 17.7492 12.3533 16.8989Z" fill="currentColor"/>
<path d="M12.3535 16.8989C12.3535 16.8989 12.9517 17.249 13.2438 17.4151C14.4038 18.0968 15.5724 18.7647 16.7271 19.4545C15.6007 20.0777 14.4743 20.7023 13.3481 21.3284C13.0665 21.4841 12.7544 21.5764 12.4334 21.5989H12.3535V16.8989Z" fill="currentColor"/>
</g>
<defs>
<clipPath id="clip0_1558_22717">
<rect width="17.5146" height="19.2" fill="white" transform="translate(3.59961 2.40002)"/>
</clipPath>
</defs>
</svg>
