<svg width="24" height="24" viewBox="0 0 24 24" fill="none" xmlns="http://www.w3.org/2000/svg">
<path d="M11.7864 21.6004L8.41339 19.2901L10.4381 16.4702C10.3925 16.4501 10.3552 16.4325 10.317 16.4176C9.89734 16.2529 9.47516 16.0944 9.05837 15.923C8.47203 15.6816 7.95386 15.3256 7.45726 14.9378C6.8367 14.453 6.29424 13.8933 5.85814 13.2337C5.3854 12.5203 5.07555 11.7415 4.91749 10.9001C4.81227 10.3398 4.78216 9.77445 4.80914 9.20728C4.86311 8.06968 5.10735 6.97851 5.6484 5.96629C6.27251 4.79815 7.19427 3.93178 8.35559 3.31079C9.09972 2.91247 9.90096 2.63158 10.7309 2.47807C10.8951 2.44754 11.0612 2.42766 11.2428 2.40039C11.2213 2.43831 11.2072 2.46387 11.1923 2.48886C10.3832 3.8416 9.57475 5.19468 8.76684 6.54809C8.54147 6.92781 8.33415 7.31847 8.12156 7.70558C7.79112 8.30711 7.67936 8.95153 7.74766 9.63103C7.81469 10.2985 8.01222 10.9226 8.39549 11.4771C9.06803 12.4511 9.98212 13.05 11.1603 13.2212C11.7166 13.3019 12.2647 13.2439 12.8011 13.0792C13.3863 12.8994 13.9211 12.6232 14.3893 12.2258C14.9226 11.7728 15.294 11.2117 15.4911 10.5406C15.7207 9.76125 15.7392 8.9734 15.5394 8.18626C15.3095 7.28084 14.7686 6.59467 14.0122 6.06413C13.5452 5.7361 13.0307 5.51954 12.4817 5.37654C12.3978 5.35467 12.3154 5.32684 12.2272 5.30014L13.8239 2.58954C14.1437 2.71323 14.4685 2.81774 14.7754 2.96089C16.593 3.80937 17.8525 5.17901 18.5587 7.05533C18.7291 7.50734 18.8285 7.97837 18.8938 8.45636C18.9599 8.92477 18.9813 9.39841 18.9577 9.87088C18.9042 10.8898 18.6131 11.8347 18.0698 12.7029C17.3014 13.9312 16.4767 15.1214 15.6348 16.2995C14.6941 17.616 13.7421 18.9244 12.7933 20.2351C12.4774 20.6714 12.1561 21.1035 11.8371 21.5373C11.8232 21.5569 11.8075 21.5738 11.7864 21.6004Z" fill="#667085"/>
</svg>
