<svg width="18" height="18" viewBox="0 0 18 18" fill="none" xmlns="http://www.w3.org/2000/svg">
<g clip-path="url(#clip0_1391_72759)">
<path d="M4.32269 9.63564H3.16113C2.89113 9.63564 2.66895 9.41626 2.66895 9.14345C2.66895 8.87064 2.88832 8.65126 3.16113 8.65126H4.32269C4.94426 8.65126 5.46176 8.19001 5.54894 7.59095H4.62363C3.60551 7.59095 2.77582 6.76126 2.77582 5.74314C2.77582 4.72501 3.62238 3.85876 4.66019 3.85876C5.69801 3.85876 6.54457 4.70533 6.54457 5.74314V6.60939H13.3368C13.708 6.60939 14.0118 6.30564 14.0118 5.93439V4.38189C14.0118 4.11189 14.2311 3.8897 14.5039 3.8897C14.7768 3.8897 14.9961 4.10908 14.9961 4.38189V5.93439C14.9961 6.84845 14.2536 7.59095 13.3396 7.59095H6.53894C6.44613 8.73283 5.48707 9.63283 4.32269 9.63283V9.63564ZM4.66019 4.84314C4.16238 4.84314 3.75738 5.24814 3.75738 5.74595C3.75738 6.24376 4.14551 6.6122 4.62363 6.6122H5.56301V5.74595C5.56301 5.24814 5.15801 4.84314 4.66019 4.84314Z" fill="#003566"/>
<path d="M13.4776 15.3479H10.9998C10.2489 15.3479 9.63574 14.7348 9.63574 13.9838V9.24475C9.63574 8.97475 9.85512 8.75256 10.1279 8.75256C10.4007 8.75256 10.6201 8.97194 10.6201 9.24475V13.9838C10.6201 14.1948 10.7917 14.3663 11.0026 14.3663H13.4804C13.7504 14.3663 13.9726 14.5857 13.9726 14.8585C13.9726 15.1313 13.7532 15.3507 13.4804 15.3507L13.4776 15.3479Z" fill="#003566"/>
<path d="M6.74129 15.3422H3.32129C3.05129 15.3422 2.8291 15.1228 2.8291 14.85C2.8291 14.5772 3.04848 14.3578 3.32129 14.3578H6.74129C7.3516 14.3578 7.84941 13.86 7.84941 13.2497V10.4569C7.84941 10.1869 8.06879 9.96472 8.3416 9.96472C8.61441 9.96472 8.83379 10.1841 8.83379 10.4569V13.2497C8.83379 14.4028 7.89441 15.3422 6.74129 15.3422Z" fill="#003566"/>
<path d="M13.5196 15.3479C12.5746 15.3479 11.8096 14.58 11.8096 13.6379C11.8096 12.6957 12.5774 11.9279 13.5196 11.9279C14.4618 11.9279 15.2296 12.6957 15.2296 13.6379C15.2296 14.58 14.4618 15.3479 13.5196 15.3479Z" fill="#003566"/>
<path d="M5.26746 13.3341C4.49121 13.3341 3.8584 12.7013 3.8584 11.9251C3.8584 11.1488 4.49121 10.516 5.26746 10.516C6.04371 10.516 6.67652 11.1488 6.67652 11.9251C6.67652 12.7013 6.04371 13.3341 5.26746 13.3341Z" fill="#003566"/>
<path d="M8.56141 5.27064C7.78516 5.27064 7.15234 4.63783 7.15234 3.86158C7.15234 3.08533 7.78516 2.45251 8.56141 2.45251C9.33766 2.45251 9.97047 3.08533 9.97047 3.86158C9.97047 4.63783 9.33766 5.27064 8.56141 5.27064Z" fill="#003566"/>
<path d="M11.6718 5.27064C10.8955 5.27064 10.2627 4.63783 10.2627 3.86158C10.2627 3.08533 10.8955 2.45251 11.6718 2.45251C12.448 2.45251 13.0808 3.08533 13.0808 3.86158C13.0808 4.63783 12.448 5.27064 11.6718 5.27064Z" fill="#003566"/>
</g>
<defs>
<clipPath id="clip0_1391_72759">
<rect width="18" height="18" fill="white"/>
</clipPath>
</defs>
</svg>
